<?xml version="1.0" encoding="UTF-8" standalone="no"?>
<!DOCTYPE svg PUBLIC "-//W3C//DTD SVG 1.1//EN" "http://www.w3.org/Graphics/SVG/1.1/DTD/svg11.dtd">
<svg width="100%" height="100%" viewBox="0 0 2088 773" version="1.1" xmlns="http://www.w3.org/2000/svg" xmlns:xlink="http://www.w3.org/1999/xlink" xml:space="preserve" xmlns:serif="http://www.serif.com/" style="fill-rule:evenodd;clip-rule:evenodd;stroke-linecap:round;stroke-linejoin:round;stroke-miterlimit:1.5;">
    <g id="BlendRange">
        <g transform="matrix(0.490337,0,0,1,529.358,-306)">
            <path d="M658,398L1015,758" style="fill:none;stroke:rgb(232,0,0);stroke-width:7.62px;"/>
        </g>
        <g transform="matrix(0.482232,0,0,1,537.942,-307)">
            <path d="M658,758L1021,398" style="fill:none;stroke:rgb(5,84,255);stroke-width:7.64px;"/>
        </g>
        <g transform="matrix(0.482232,0,0,1,1072.05,-304)">
            <path d="M658,758L1021,398" style="fill:none;stroke:rgb(5,84,255);stroke-width:7.64px;"/>
        </g>
        <g transform="matrix(0.000667893,0.997214,-0.485578,0.00690407,1397.93,-570.4)">
            <path d="M658,758L1021,398" style="fill:none;stroke:rgb(5,84,255);stroke-width:7.61px;"/>
        </g>
        <g transform="matrix(0.482232,0,0,1,715.493,-307)">
            <path d="M658,758L1021,398" style="fill:none;stroke:rgb(16,167,0);stroke-width:7.64px;"/>
        </g>
        <g transform="matrix(0.000667893,0.997214,-0.485578,0.00690407,1575.48,-570.4)">
            <path d="M658,758L1021,398" style="fill:none;stroke:rgb(16,167,0);stroke-width:7.61px;"/>
        </g>
        <g transform="matrix(0.482232,0,0,1,895.045,-307)">
            <path d="M658,758L1021,398" style="fill:none;stroke:rgb(232,0,0);stroke-width:7.64px;"/>
        </g>
        <g transform="matrix(0.000667893,0.997214,-0.485578,0.00690407,1755.03,-570.4)">
            <path d="M658,758L1021,398" style="fill:none;stroke:rgb(232,0,0);stroke-width:7.61px;"/>
        </g>
        <g transform="matrix(1,5.20417e-18,1.00831e-17,1,1,0)">
            <path d="M1564.41,92L1925,92" style="fill:none;stroke:rgb(5,84,255);stroke-width:6px;"/>
        </g>
        <g transform="matrix(1,5.20417e-18,9.97466e-18,1,-2,0)">
            <path d="M853,91L494,92" style="fill:none;stroke:rgb(232,0,0);stroke-width:6px;"/>
        </g>
        <g transform="matrix(0.964501,0,0,1,220.904,-103)">
            <rect x="279" y="554" width="1493" height="12"/>
        </g>
        <g transform="matrix(1.33333,0,0,1.45455,942.667,-669)">
            <rect x="196" y="737" width="9" height="33"/>
        </g>
        <g transform="matrix(1.33333,0,0,1.45455,1120.67,-669)">
            <rect x="196" y="737" width="9" height="33"/>
        </g>
        <g transform="matrix(1.33333,0,0,1.45455,762.667,-669)">
            <rect x="196" y="737" width="9" height="33"/>
        </g>
        <g transform="matrix(1.33333,0,0,1.45455,585.667,-669)">
            <rect x="196" y="737" width="9" height="33"/>
        </g>
        <g transform="matrix(1.33333,0,0,1.45455,1299.67,-669)">
            <rect x="196" y="737" width="9" height="33"/>
        </g>
        <g transform="matrix(1.33333,0,0,10.9091,228.667,-7949)">
            <rect x="196" y="737" width="9" height="33"/>
        </g>
        <g transform="matrix(1.33333,0,0,10.9091,1656.57,-7949)">
            <rect x="196" y="737" width="9" height="33"/>
        </g>
        <g transform="matrix(1,0,0,1,263.113,-295)">
            <g transform="matrix(80,0,0,80,330.211,863)">
            </g>
            <text x="219px" y="863px" style="font-family:'ArialMT', 'Arial', sans-serif;font-size:80px;">0.0</text>
        </g>
        <g transform="matrix(1,0,0,1,1602.11,-295)">
            <g transform="matrix(80,0,0,80,330.211,863)">
            </g>
            <text x="219px" y="863px" style="font-family:'ArialMT', 'Arial', sans-serif;font-size:80px;">1.0</text>
        </g>
        <g transform="matrix(1,0,0,1,580.086,-280)">
            <g transform="matrix(80,0,0,80,380.531,1018)">
            </g>
            <text x="176px" y="1018px" style="font-family:'ArialMT', 'Arial', sans-serif;font-size:80px;fill:rgb(232,0,0);">Clip 1</text>
        </g>
        <g transform="matrix(1,0,0,1,751.852,-365.141)">
            <g transform="matrix(80,0,0,80,380.531,1018)">
            </g>
            <text x="176px" y="1018px" style="font-family:'ArialMT', 'Arial', sans-serif;font-size:80px;fill:rgb(5,84,255);">Clip 2</text>
        </g>
        <g transform="matrix(1,0,0,1,931.411,-280)">
            <g transform="matrix(80,0,0,80,380.531,1018)">
            </g>
            <text x="176px" y="1018px" style="font-family:'ArialMT', 'Arial', sans-serif;font-size:80px;fill:rgb(16,167,0);">Clip 3</text>
        </g>
        <g transform="matrix(1,0,0,1,1108.68,-365.141)">
            <g transform="matrix(80,0,0,80,380.531,1018)">
            </g>
            <text x="176px" y="1018px" style="font-family:'ArialMT', 'Arial', sans-serif;font-size:80px;fill:rgb(232,0,0);">Clip 4</text>
        </g>
        <g transform="matrix(1,0,0,1,1289.25,-291)">
            <g transform="matrix(80,0,0,80,380.531,1018)">
            </g>
            <text x="176px" y="1018px" style="font-family:'ArialMT', 'Arial', sans-serif;font-size:80px;fill:rgb(5,84,255);">Clip 5</text>
        </g>
        <g transform="matrix(1,0,0,1,-318,-299.736)">
            <g transform="matrix(80,0,0,80,764.865,867.501)">
            </g>
            <text x="346.779px" y="867.501px" style="font-family:'ArialMT', 'Arial', sans-serif;font-size:80px;">Blend value</text>
        </g>
        <g transform="matrix(1,0,0,1,-306.102,-577.236)">
            <g transform="matrix(80,0,0,80,634.318,867.501)">
            </g>
            <text x="346.779px" y="867.501px" style="font-family:'ArialMT', 'Arial', sans-serif;font-size:80px;">W<tspan x="420.841px 465.334px " y="867.501px 867.501px ">ei</tspan>ghts</text>
        </g>
        <g transform="matrix(1,0,0,1,-308.738,74.0508)">
            <path d="M506.131,196L674.459,196L714.139,125L728,125L688.32,196L728,267L714.139,267L674.459,196L506.131,196Z"/>
        </g>
    </g>
</svg>
